#!OML:ASF G:\JayActor3\Patient Classification 1\Patient 1\Session 6\male.ASF
:FULLY-SPECIFIED
:DEGREES
1454
root -25.2397 16.2975 12.8586 -337.433 -126.063 -4.67757
lowerback 33.1795 -1.11861 0.741769
upperback 4.65138 -1.85793 0.830696
thorax -11.8708 -1.18848 1.29113
lowerneck 13.626 -3.62604 -0.456115
upperneck -21.5033 -3.60546 8.82957
head -8.79214 -2.83636 3.53048
rclavicle 3.16068e-014 -3.39922e-014
rhumerus -38.988 8.40991 -87.3922
rradius 58.8235
rwrist -1.53832
rhand -22.5432 5.93285
rfingers 7.12502
rthumb 3.88419 -24.0115
lclavicle 3.16068e-014 -3.39922e-014
lhumerus -56.1454 -12.6736 90.6393
lradius 62.623
lwrist 40.921
lhand -24.6774 -3.23866
lfingers 7.12502
lthumb 1.82314 26.7333
rfemur -41.4385 9.10726 32.5216
rtibia 43.1278
rfoot -20.9341 -17.2007
rtoes 12.3468
lfemur -76.0811 1.23946 -12.1505
ltibia 85.7715
lfoot -5.92434 -2.12222
ltoes -2.23072
1455
root -25.4029 16.2985 12.7806 -337.896 -126.854 -4.23731
lowerback 33.4196 -1.09872 0.789262
upperback 4.56056 -1.81579 0.830072
thorax -12.0714 -1.17112 1.25749
lowerneck 13.3716 -3.45177 -0.511932
upperneck -21.5681 -3.38853 8.86635
head -8.77675 -2.73984 3.52494
rclavicle -7.17613e-014 3.69739e-014
rhumerus -39.3485 8.41673 -87.4641
rradius 59.1568
rwrist -1.63037
rhand -22.6495 5.92721
rfingers 7.12502
rthumb 3.78154 -24.019
lclavicle -7.17613e-014 3.69739e-014
lhumerus -56.4244 -12.5425 90.9169
lradius 62.4728
lwrist 40.8857
lhand -24.7347 -3.29314
lfingers 7.12502
lthumb 1.76784 26.6793
rfemur -40.4681 9.1896 32.7286
rtibia 43.0597
rfoot -21.3392 -16.6516
rtoes 12.2819
lfemur -75.7374 0.593579 -11.9566
ltibia 82.3238
lfoot -7.51973 -1.86633
ltoes -3.45228
1456
root -25.5669 16.302 12.6953 -338.244 -127.631 -3.89395
lowerback 33.5579 -1.08567 0.740273
upperback 4.45684 -1.80928 0.853575
thorax -12.243 -1.16391 1.31285
lowerneck 13.0127 -3.27068 -0.636168
upperneck -21.5106 -3.18134 8.91121
head -8.69773 -2.63759 3.52641
rclavicle -2.08724e-014 6.91771e-014
rhumerus -39.6688 8.55729 -87.5465
rradius 59.3071
rwrist -1.64157
rhand -22.7002 5.87393
rfingers 7.12502
rthumb 3.73262 -24.0731
lclavicle -2.08724e-014 6.91771e-014
lhumerus -56.6908 -12.4058 91.2586
lradius 62.2126
lwrist 40.7088
lhand -24.6749 -3.31892
lfingers 7.12502
lthumb 1.82552 26.653
rfemur -39.4803 9.30979 32.8632
rtibia 42.9164
rfoot -21.7356 -16.14
rtoes 12.2811
lfemur -75.1036 0.0146165 -11.8164
ltibia 78.3908
lfoot -8.98964 -1.79132
ltoes -5.12429
1457
root -25.7311 16.3077 12.6013 -338.527 -128.405 -3.57017
lowerback 33.5677 -1.06841 0.61831
upperback 4.35055 -1.81689 0.904451
thorax -12.364 -1.15816 1.4389
lowerneck 12.5216 -3.09048 -0.806174
upperneck -21.2908 -2.99248 8.9516
head -8.53734 -2.53189 3.52574
rclavicle -5.52621e-014 7.13637e-014
rhumerus -39.9229 8.7995 -87.6377
rradius 59.2615
rwrist -1.56366
rhand -22.6787 5.80132
rfingers 7.12502
rthumb 3.75341 -24.1454
lclavicle -5.52621e-014 7.13637e-014
lhumerus -56.9348 -12.2782 91.647
lradius 61.8612
lwrist 40.4325
lhand -24.5224 -3.33684
lfingers 7.12502
lthumb 1.97288 26.6338
rfemur -38.5309 9.51941 32.9696
rtibia 42.8105
rfoot -22.1592 -15.6958
rtoes 12.2482
lfemur -74.2178 -0.464852 -11.6792
ltibia 74.0906
lfoot -10.3985 -1.89975
ltoes -6.93073
1458
root -25.8966 16.316 12.498 -338.795 -129.178 -3.20441
lowerback 33.4373 -1.05097 0.476462
upperback 4.24938 -1.82716 0.969561
thorax -12.422 -1.15142 1.58809
lowerneck 11.8781 -2.92638 -0.983927
upperneck -20.8773 -2.83487 8.98776
head -8.28275 -2.4303 3.51694
rclavicle -9.44227e-015 -1.35174e-014
rhumerus -40.1042 9.08825 -87.7532
rradius 59.0256
rwrist -1.40717
rhand -22.5933 5.69722
rfingers 7.12502
rthumb 3.83587 -24.248
lclavicle -9.44227e-015 -1.35174e-014
lhumerus -57.1638 -12.1771 92.0486
lradius 61.4539
lwrist 40.105
lhand -24.3104 -3.34883
lfingers 7.12502
lthumb 2.17759 26.6198
rfemur -37.5488 9.80773 33.103
rtibia 42.6052
rfoot -22.5067 -15.331
rtoes 12.0904
lfemur -73.0911 -0.851207 -11.4893
ltibia 69.4611
lfoot -11.7294 -2.16428
ltoes -8.60089
1459
root -26.0719 16.294 12.39 -339.077 -129.946 -2.77091
lowerback 33.1888 -1.04265 0.36438
upperback 4.15259 -1.83603 1.03484
thorax -12.4276 -1.14443 1.71758
lowerneck 11.0612 -2.7689 -1.14015
upperneck -20.2231 -2.69549 8.98915
head -7.91843 -2.32317 3.48229
rclavicle 7.65321e-015 1.90833e-014
rhumerus -40.2237 9.38212 -87.8981
rradius 58.6259
rwrist -1.20197
rhand -22.458 5.61936
rfingers 7.12502
rthumb 3.96648 -24.3235
lclavicle 7.65321e-015 1.90833e-014
lhumerus -57.3971 -12.1161 92.4377
lradius 61.0294
lwrist 39.7679
lhand -24.0928 -3.37561
lfingers 7.12502
lthumb 2.38778 26.5908
rfemur -36.6025 10.1221 33.3146
rtibia 42.4158
rfoot -22.8141 -15.0294
rtoes 11.8059
lfemur -71.9414 -1.19526 -11.2284
ltibia 64.7691
lfoot -12.993 -2.48613
ltoes -9.99767
1460
root -26.242 16.3075 12.2713 -339.409 -130.72 -2.2225
lowerback 32.8502 -1.04582 0.317523
upperback 4.0507 -1.83348 1.10098
thorax -12.403 -1.13405 1.80599
lowerneck 10.0684 -2.62639 -1.2683
upperneck -19.3153 -2.58406 8.95801
head -7.44268 -2.21519 3.42399
rclavicle 6.04305e-014 -3.8763e-015
rhumerus -40.3009 9.6681 -88.072
rradius 58.1009
rwrist -0.983807
rhand -22.3075 5.54457
rfingers 7.12502
rthumb 4.11187 -24.3955
lclavicle 6.04305e-014 -3.8763e-015
lhumerus -57.6608 -12.0832 92.8017
lradius 60.63
lwrist 39.4518
lhand -23.9059 -3.41543
lfingers 7.12502
lthumb 2.56824 26.5489
rfemur -35.533 10.4005 33.6361
rtibia 42.0351
rfoot -22.9998 -14.7729
rtoes 11.35
lfemur -70.3914 -1.48521 -10.828
ltibia 59.7732
lfoot -14.2514 -2.84033
ltoes -10.9456
1461
root -26.4148 16.3224 12.1478 -339.805 -131.509 -1.55245
lowerback 32.4571 -1.0615 0.372294
upperback 3.94086 -1.81153 1.15086
thorax -12.3667 -1.11869 1.8132
lowerneck 8.89652 -2.51195 -1.32967
upperneck -18.1458 -2.5137 8.88954
head -6.85657 -2.11474 3.33732
rclavicle -3.06625e-014 6.86801e-014
rhumerus -40.3647 9.90208 -88.2778
rradius 57.514
rwrist -0.778767
rhand -22.098 5.47851
rfingers 7.12502
rthumb 4.31412 -24.4575
lclavicle -3.06625e-014 6.86801e-014
lhumerus -57.9676 -12.1069 93.1216
lradius 60.2858
lwrist 39.1867
lhand -23.8025 -3.47469
lfingers 7.12502
lthumb 2.66812 26.4884
rfemur -34.4483 10.5923 34.0985
rtibia 41.6276
rfoot -23.0852 -14.5481
rtoes 10.6317
lfemur -68.6949 -1.76051 -10.2695
ltibia 54.7914
lfoot -15.4592 -3.09315
ltoes -11.8226
1462
root -26.5905 16.3377 12.0211 -340.259 -132.316 -0.779026
lowerback 32.04 -1.10028 0.501302
upperback 3.8166 -1.79151 1.20626
thorax -12.3363 -1.10649 1.78666
lowerneck 7.55702 -2.40752 -1.37813
upperneck -16.7155 -2.46805 8.78761
head -6.16674 -2.01087 3.23429
rclavicle 2.44878e-014 3.15819e-014
rhumerus -40.4235 10.1503 -88.4979
rradius 56.8945
rwrist -0.601356
rhand -21.8607 5.4355
rfingers 7.12502
rthumb 4.54333 -24.4958
lclavicle 2.44878e-014 3.15819e-014
lhumerus -58.3139 -12.0752 93.3892
lradius 60.0111
lwrist 38.9632
lhand -23.7674 -3.5283
lfingers 7.12502
lthumb 2.70201 26.4343
rfemur -33.325 10.6456 34.6926
rtibia 41.1383
rfoot -22.9899 -14.3047
rtoes 9.74816
lfemur -66.8558 -2.0433 -9.54974
ltibia 49.8717
lfoot -16.5378 -3.21811
ltoes -12.4921
1463
root -26.7675 16.3514 11.8925 -340.76 -133.134 0.056685
lowerback 31.6512 -1.1596 0.683589
upperback 3.67743 -1.779 1.26811
thorax -12.3336 -1.09949 1.7422
lowerneck 6.0655 -2.31636 -1.41507
upperneck -15.0413 -2.44923 8.66299
head -5.38504 -1.90726 3.12239
rclavicle 1.43125e-014 -3.00165e-014
rhumerus -40.4984 10.4076 -88.724
rradius 56.3031
rwrist -0.474535
rhand -21.6165 5.43452
rfingers 7.12502
rthumb 4.77908 -24.4916
lclavicle 1.43125e-014 -3.00165e-014
lhumerus -58.6914 -11.9897 93.6001
lradius 59.8104
lwrist 38.7895
lhand -23.8133 -3.5861
lfingers 7.12502
lthumb 2.65765 26.3771
rfemur -32.2739 10.554 35.3834
rtibia 40.8119
rfoot -22.7854 -14.0027
rtoes 8.71798
lfemur -64.9488 -2.33973 -8.70591
ltibia 45.2502
lfoot -17.4834 -3.12619
ltoes -13.6828
